# xmcd CD database file
#
# Track frame offsets:
#	180
#	29668
#	58618
#	91260
#	117885
#	138773
#	177190
#	196158
#	199193
#	223808
#	258610
#	274843
#
# Disc length: 3933 seconds
#
# Revision: 1
# Processed by: cddbd v1.5.2PL0 Copyright (c) Steve Scherf et al.
# Submitted via: CDex 1.51
#
DISCID=b30f5b0c
DTITLE=Screamin' Jay Hawkins - Live At The Olympia, Paris 1998 - CD2
DYEAR=1999
DGENRE=Blues
TTITLE0=Bite It (Live)
TTITLE1=Constipation Blues (Live)
TTITLE2=What'd I Say (Live)
TTITLE3=Alligator Wine (Live)
TTITLE4=I Put a Spell On You (Live)
TTITLE5=Itty Bitty One (Live)
TTITLE6=Shout (Live)
TTITLE7=Short (Live)
TTITLE8=You Took Me (Live)
TTITLE9=Please don't Leave Me (Live)
TTITLE10=Goodnight Sweetheart (Live)
TTITLE11=Bonus track: Frankly Speaking (Live)
EXTD=YEAR: 1999
EXTT0=
EXTT1=
EXTT2=
EXTT3=
EXTT4=
EXTT5=
EXTT6=
EXTT7=
EXTT8=
EXTT9=
EXTT10=
EXTT11=
PLAYORDER=
